<svg preserveAspectRatio="none" overflow="visible" style="display: block;" width="329.158" height="689.71" viewBox="0 0 329.158 689.71" fill="none" xmlns="http://www.w3.org/2000/svg">
<path id="Stroke Body Outside (Stroke)" d="M277.876 689.115V689.71H51.2817V689.115H277.876ZM328.562 638.494V51.2167C328.562 23.2594 305.869 0.59563 277.876 0.595617H51.2817C23.289 0.595723 0.596472 23.2595 0.596373 51.2167V638.494C0.596562 666.451 23.289 689.114 51.2817 689.115V689.71L50.6192 689.706C22.823 689.355 0.356111 666.916 0.00398645 639.155L0 638.494V51.2167C9.95785e-05 22.9305 22.9596 0.000105891 51.2817 0H277.876L278.539 0.0039814C306.556 0.358281 329.158 23.1514 329.158 51.2167V638.494L329.154 639.155C328.802 666.916 306.335 689.355 278.539 689.706L277.876 689.71V689.115C305.869 689.115 328.562 666.451 328.562 638.494Z" fill="#1B1C16"/>
</svg>
