<svg preserveAspectRatio="none" overflow="visible" style="display: block;" width="25" height="25" viewBox="0 0 25 25" fill="none" xmlns="http://www.w3.org/2000/svg">
<g id="Content">
<g id="Vector 2">
<path d="M15.5939 22.9578C15.2547 22.9356 14.5645 22.8914 14.5166 22.8914L15.2946 23.7542L15.5939 22.9578Z" fill="white"/>
<path d="M14.4568 24.2187L14.3371 22.9578L15.0552 23.8205L14.4568 24.2187Z" fill="white"/>
<path d="M13.5591 23.8205L14.1575 22.9578L14.2174 24.1524L13.5591 23.8205Z" fill="white"/>
<path d="M12.422 23.7542L12.6613 23.0905H11.5242L12.422 23.7542Z" fill="white"/>
<path d="M12.3023 23.8205L11.5242 23.2896L11.5841 24.2187L12.3023 23.8205Z" fill="white"/>
<path d="M11.4045 24.2187V23.2232L10.8061 24.0196L11.4045 24.2187Z" fill="white"/>
</g>
<path id="Subtract" d="M20.2334 3.49414C19.3853 2.56169 17.0106 1.00326 14.2969 2.22852C13.3544 2.76064 12.7011 3.59918 12.2334 4.42676C11.5888 5.56736 11.2966 6.68781 11.0859 6.95801C10.8554 7.25395 10.0416 8.93359 8.33594 10.2471C7.34961 11.0066 6.06442 11.6438 4.42188 11.8203C2.16755 11.8202 0.605891 10.2218 0 9.55566C0.848266 12.3755 4.14423 18.0146 10.541 18.0146C10.7349 19.0806 11.1868 21.4812 11.3887 23.0352L12.2363 18.2139H13.3877L14.1758 22.7686L15.0234 18.0146C18.4158 17.6816 24.5945 13.1518 21.2627 4.89258L22.6562 2.96094L20.96 4.42676L21.9902 1.5625L20.2334 3.49414ZM15.2393 9.46582C15.2488 9.48866 15.7043 10.5625 17.1719 11.4375C18.4082 12.1741 19.9912 11.4375 19.9912 11.4375L19.7461 11.8252C17.2014 15.7356 14.3013 16.6676 10.0859 15.4287C11.4556 15.0912 12.4837 14.7312 13.2754 14.333C11.6709 14.4962 10.0211 14.2999 8.58203 13.4863C10.8035 13.3117 13.9506 12.0315 15.2393 9.46582ZM16.7451 5.31836C16.7228 4.97302 16.8259 4.19415 17.1475 3.83887C17.4693 3.48367 18.0199 3.29543 18.2881 3.24609L16.7451 5.31836Z" fill="white"/>
</g>
</svg>
